<?xml version="1.0" encoding="UTF-8" standalone="no"?>
<!DOCTYPE svg PUBLIC "-//W3C//DTD SVG 1.1//EN"
 "http://www.w3.org/Graphics/SVG/1.1/DTD/svg11.dtd">
<!-- Generated by graphviz version 2.40.1 (20161225.0304)
 -->
<!-- Title: Test Pages: 1 -->
<svg width="694pt" height="294pt"
 viewBox="0.00 0.00 694.00 294.00" xmlns="http://www.w3.org/2000/svg" xmlns:xlink="http://www.w3.org/1999/xlink">
<g id="graph0" class="graph" transform="scale(1 1) rotate(0) translate(4 290)">
<title>Test</title>
<polygon fill="#ffffff" stroke="transparent" points="-4,4 -4,-290 690,-290 690,4 -4,4"/>
<g id="clust1" class="cluster">
<title>cluster0</title>
<polygon fill="#d3d3d3" stroke="#ffffff" points="135,-8 135,-60 427,-60 427,-8 135,-8"/>
</g>
<g id="clust3" class="cluster">
<title>cluster1</title>
<polygon fill="none" stroke="#000000" points="8,-117 8,-169 229,-169 229,-117 8,-117"/>
</g>
<g id="clust5" class="cluster">
<title>cluster2</title>
<polygon fill="none" stroke="#000000" points="237,-117 237,-169 333,-169 333,-117 237,-117"/>
</g>
<g id="clust6" class="cluster">
<title>cluster3</title>
<polygon fill="none" stroke="#000000" points="341,-117 341,-169 678,-169 678,-117 341,-117"/>
</g>
<g id="clust8" class="cluster">
<title>cluster4</title>
<polygon fill="none" stroke="#ffffff" points="40,-226 40,-278 242,-278 242,-226 40,-226"/>
</g>
<g id="clust11" class="cluster">
<title>cluster5</title>
<polygon fill="none" stroke="#ffffff" points="299,-226 299,-278 510,-278 510,-226 299,-226"/>
</g>
<g id="clust14" class="cluster">
<title>cluster6</title>
<polygon fill="none" stroke="#ffffff" points="520,-226 520,-278 624,-278 624,-226 520,-226"/>
</g>
<!-- NodeFemale1 -->
<g id="node1" class="node">
<title>NodeFemale1</title>
<ellipse fill="none" stroke="#000000" cx="187" cy="-34" rx="44.0795" ry="18"/>
<text text-anchor="middle" x="187" y="-29.8" font-family="Times,serif" font-size="14.00" fill="#000000">Female1</text>
</g>
<!-- ConnectionFemale1Male1 -->
<g id="node3" class="node">
<title>ConnectionFemale1Male1</title>
<polygon fill="none" stroke="#000000" points="321,-34.5 249,-34.5 249,-33.5 321,-33.5 321,-34.5"/>
</g>
<!-- NodeFemale1&#45;&#45;ConnectionFemale1Male1 -->
<g id="edge1" class="edge">
<title>NodeFemale1&#45;&#45;ConnectionFemale1Male1</title>
<path fill="none" stroke="#000000" stroke-width="2" d="M231.4122,-34C237.2869,-34 243.2503,-34 248.9607,-34"/>
</g>
<!-- NodeMale1 -->
<g id="node2" class="node">
<title>NodeMale1</title>
<ellipse fill="none" stroke="#000000" cx="379" cy="-34" rx="39.5" ry="18"/>
<text text-anchor="middle" x="379" y="-29.8" font-family="Times,serif" font-size="14.00" fill="#000000">Male1</text>
</g>
<!-- ConnectionFemale1Male1&#45;&#45;NodeMale1 -->
<g id="edge2" class="edge">
<title>ConnectionFemale1Male1&#45;&#45;NodeMale1</title>
<path fill="none" stroke="#000000" stroke-width="2" d="M321.074,-34C327.0799,-34 333.3377,-34 339.425,-34"/>
</g>
<!-- ConnectionChildren11 -->
<g id="node4" class="node">
<title>ConnectionChildren11</title>
<polygon fill="none" stroke="#000000" points="285.5,-89 284.5,-89 284.5,-88 285.5,-88 285.5,-89"/>
</g>
<!-- ConnectionFemale1Male1&#45;&#45;ConnectionChildren11 -->
<g id="edge3" class="edge">
<title>ConnectionFemale1Male1&#45;&#45;ConnectionChildren11</title>
<path fill="none" stroke="#000000" stroke-width="2" d="M285,-34.6121C285,-40.2254 285,-82.6762 285,-87.9606"/>
</g>
<!-- NodeMale2 -->
<g id="node6" class="node">
<title>NodeMale2</title>
<ellipse fill="none" stroke="#000000" cx="181" cy="-143" rx="39.5" ry="18"/>
<text text-anchor="middle" x="181" y="-138.8" font-family="Times,serif" font-size="14.00" fill="#000000">Male2</text>
</g>
<!-- ConnectionChildren11&#45;&#45;NodeMale2 -->
<g id="edge6" class="edge">
<title>ConnectionChildren11&#45;&#45;NodeMale2</title>
<path fill="none" stroke="#000000" stroke-width="2" d="M284.3397,-89C275.5339,-89 181.6054,-89 181.6054,-89 181.6054,-89 181.6054,-109.0522 181.6054,-124.7181"/>
</g>
<!-- NodeMaleX -->
<g id="node11" class="node">
<title>NodeMaleX</title>
<ellipse fill="none" stroke="#000000" cx="285" cy="-143" rx="39.5" ry="18"/>
<text text-anchor="middle" x="285" y="-138.8" font-family="Times,serif" font-size="14.00" fill="#000000">MaleX</text>
</g>
<!-- ConnectionChildren11&#45;&#45;NodeMaleX -->
<g id="edge7" class="edge">
<title>ConnectionChildren11&#45;&#45;NodeMaleX</title>
<path fill="none" stroke="#000000" stroke-width="2" d="M285,-89.1121C285,-92.6204 285,-110.5184 285,-124.7386"/>
</g>
<!-- NodeFemale4 -->
<g id="node12" class="node">
<title>NodeFemale4</title>
<ellipse fill="none" stroke="#000000" cx="393" cy="-143" rx="44.0795" ry="18"/>
<text text-anchor="middle" x="393" y="-138.8" font-family="Times,serif" font-size="14.00" fill="#000000">Female4</text>
</g>
<!-- ConnectionChildren11&#45;&#45;NodeFemale4 -->
<g id="edge12" class="edge">
<title>ConnectionChildren11&#45;&#45;NodeFemale4</title>
<path fill="none" stroke="#000000" stroke-width="2" d="M285.6297,-89C294.0276,-89 383.6054,-89 383.6054,-89 383.6054,-89 383.6054,-109.5697 383.6054,-125.3184"/>
</g>
<!-- NodeFemale2 -->
<g id="node5" class="node">
<title>NodeFemale2</title>
<ellipse fill="none" stroke="#000000" cx="60" cy="-143" rx="44.0795" ry="18"/>
<text text-anchor="middle" x="60" y="-138.8" font-family="Times,serif" font-size="14.00" fill="#000000">Female2</text>
</g>
<!-- ConnectionFemale2Male2 -->
<g id="node7" class="node">
<title>ConnectionFemale2Male2</title>
<polygon fill="none" stroke="#000000" points="123.5,-143.5 122.5,-143.5 122.5,-142.5 123.5,-142.5 123.5,-143.5"/>
</g>
<!-- NodeFemale2&#45;&#45;ConnectionFemale2Male2 -->
<g id="edge4" class="edge">
<title>NodeFemale2&#45;&#45;ConnectionFemale2Male2</title>
<path fill="none" stroke="#000000" stroke-width="2" d="M104.4387,-143C112.9089,-143 119.8684,-143 122.1804,-143"/>
</g>
<!-- ConnectionFemale2Male2&#45;&#45;NodeMale2 -->
<g id="edge5" class="edge">
<title>ConnectionFemale2Male2&#45;&#45;NodeMale2</title>
<path fill="none" stroke="#000000" stroke-width="2" d="M123.6514,-143C125.7671,-143 132.8002,-143 141.2521,-143"/>
</g>
<!-- ConnectionChildren22 -->
<g id="node8" class="node">
<title>ConnectionChildren22</title>
<polygon fill="none" stroke="#000000" points="123.5,-198 122.5,-198 122.5,-197 123.5,-197 123.5,-198"/>
</g>
<!-- ConnectionFemale2Male2&#45;&#45;ConnectionChildren22 -->
<g id="edge13" class="edge">
<title>ConnectionFemale2Male2&#45;&#45;ConnectionChildren22</title>
<path fill="none" stroke="#000000" stroke-width="2" d="M123,-143.6121C123,-149.2254 123,-191.6762 123,-196.9606"/>
</g>
<!-- NodeMale3 -->
<g id="node9" class="node">
<title>NodeMale3</title>
<ellipse fill="none" stroke="#000000" cx="194" cy="-252" rx="39.5" ry="18"/>
<text text-anchor="middle" x="194" y="-247.8" font-family="Times,serif" font-size="14.00" fill="#000000">Male3</text>
</g>
<!-- ConnectionChildren22&#45;&#45;NodeMale3 -->
<g id="edge14" class="edge">
<title>ConnectionChildren22&#45;&#45;NodeMale3</title>
<path fill="none" stroke="#000000" stroke-width="2" d="M123.7244,-198C130.8105,-198 187.5,-198 187.5,-198 187.5,-198 187.5,-218.3102 187.5,-234.0188"/>
</g>
<!-- NodeFemale3 -->
<g id="node10" class="node">
<title>NodeFemale3</title>
<ellipse fill="none" stroke="#000000" cx="92" cy="-252" rx="44.0795" ry="18"/>
<text text-anchor="middle" x="92" y="-247.8" font-family="Times,serif" font-size="14.00" fill="#000000">Female3</text>
</g>
<!-- ConnectionChildren22&#45;&#45;NodeFemale3 -->
<g id="edge15" class="edge">
<title>ConnectionChildren22&#45;&#45;NodeFemale3</title>
<path fill="none" stroke="#000000" stroke-width="2" d="M123,-198.1121C123,-202.0648 123,-224.2834 123,-238.9286"/>
</g>
<!-- ConnectionFemale4Male4 -->
<g id="node15" class="node">
<title>ConnectionFemale4Male4</title>
<polygon fill="none" stroke="#000000" points="456.5,-143.5 455.5,-143.5 455.5,-142.5 456.5,-142.5 456.5,-143.5"/>
</g>
<!-- NodeFemale4&#45;&#45;ConnectionFemale4Male4 -->
<g id="edge8" class="edge">
<title>NodeFemale4&#45;&#45;ConnectionFemale4Male4</title>
<path fill="none" stroke="#000000" stroke-width="2" d="M437.4387,-143C445.9089,-143 452.8684,-143 455.1804,-143"/>
</g>
<!-- NodeMale4 -->
<g id="node13" class="node">
<title>NodeMale4</title>
<ellipse fill="none" stroke="#000000" cx="514" cy="-143" rx="39.5" ry="18"/>
<text text-anchor="middle" x="514" y="-138.8" font-family="Times,serif" font-size="14.00" fill="#000000">Male4</text>
</g>
<!-- ConnectionMale4Male5 -->
<g id="node16" class="node">
<title>ConnectionMale4Male5</title>
<polygon fill="none" stroke="#000000" points="572.5,-143.5 571.5,-143.5 571.5,-142.5 572.5,-142.5 572.5,-143.5"/>
</g>
<!-- NodeMale4&#45;&#45;ConnectionMale4Male5 -->
<g id="edge10" class="edge">
<title>NodeMale4&#45;&#45;ConnectionMale4Male5</title>
<path fill="none" stroke="#000000" stroke-width="2" d="M553.6484,-143C561.9321,-143 568.8697,-143 571.1801,-143"/>
</g>
<!-- NodeMale5 -->
<g id="node14" class="node">
<title>NodeMale5</title>
<ellipse fill="none" stroke="#000000" cx="630" cy="-143" rx="39.5" ry="18"/>
<text text-anchor="middle" x="630" y="-138.8" font-family="Times,serif" font-size="14.00" fill="#000000">Male5</text>
</g>
<!-- ConnectionFemale4Male4&#45;&#45;NodeMale4 -->
<g id="edge9" class="edge">
<title>ConnectionFemale4Male4&#45;&#45;NodeMale4</title>
<path fill="none" stroke="#000000" stroke-width="2" d="M456.6514,-143C458.7671,-143 465.8002,-143 474.2521,-143"/>
</g>
<!-- ConnectionChildren44 -->
<g id="node17" class="node">
<title>ConnectionChildren44</title>
<polygon fill="none" stroke="#000000" points="456.5,-198 455.5,-198 455.5,-197 456.5,-197 456.5,-198"/>
</g>
<!-- ConnectionFemale4Male4&#45;&#45;ConnectionChildren44 -->
<g id="edge16" class="edge">
<title>ConnectionFemale4Male4&#45;&#45;ConnectionChildren44</title>
<path fill="none" stroke="#000000" stroke-width="2" d="M456,-143.6121C456,-149.2254 456,-191.6762 456,-196.9606"/>
</g>
<!-- ConnectionMale4Male5&#45;&#45;NodeMale5 -->
<g id="edge11" class="edge">
<title>ConnectionMale4Male5&#45;&#45;NodeMale5</title>
<path fill="none" stroke="#000000" stroke-width="2" d="M572.6514,-143C574.7671,-143 581.8002,-143 590.2521,-143"/>
</g>
<!-- ConnectionChildren45 -->
<g id="node20" class="node">
<title>ConnectionChildren45</title>
<polygon fill="none" stroke="#000000" points="572.5,-198 571.5,-198 571.5,-197 572.5,-197 572.5,-198"/>
</g>
<!-- ConnectionMale4Male5&#45;&#45;ConnectionChildren45 -->
<g id="edge19" class="edge">
<title>ConnectionMale4Male5&#45;&#45;ConnectionChildren45</title>
<path fill="none" stroke="#000000" stroke-width="2" d="M572,-143.6121C572,-149.2254 572,-191.6762 572,-196.9606"/>
</g>
<!-- NodeFemale6 -->
<g id="node18" class="node">
<title>NodeFemale6</title>
<ellipse fill="none" stroke="#000000" cx="458" cy="-252" rx="44.0795" ry="18"/>
<text text-anchor="middle" x="458" y="-247.8" font-family="Times,serif" font-size="14.00" fill="#000000">Female6</text>
</g>
<!-- ConnectionChildren44&#45;&#45;NodeFemale6 -->
<g id="edge17" class="edge">
<title>ConnectionChildren44&#45;&#45;NodeFemale6</title>
<path fill="none" stroke="#000000" stroke-width="2" d="M456,-198.1121C456,-201.6204 456,-219.5184 456,-233.7386"/>
</g>
<!-- NodeFemale7 -->
<g id="node19" class="node">
<title>NodeFemale7</title>
<ellipse fill="none" stroke="#000000" cx="351" cy="-252" rx="44.0795" ry="18"/>
<text text-anchor="middle" x="351" y="-247.8" font-family="Times,serif" font-size="14.00" fill="#000000">Female7</text>
</g>
<!-- ConnectionChildren44&#45;&#45;NodeFemale7 -->
<g id="edge18" class="edge">
<title>ConnectionChildren44&#45;&#45;NodeFemale7</title>
<path fill="none" stroke="#000000" stroke-width="2" d="M455.4636,-198C448.3096,-198 372,-198 372,-198 372,-198 372,-220.1616 372,-236.0903"/>
</g>
<!-- NodeFemale8 -->
<g id="node21" class="node">
<title>NodeFemale8</title>
<ellipse fill="none" stroke="#000000" cx="572" cy="-252" rx="44.0795" ry="18"/>
<text text-anchor="middle" x="572" y="-247.8" font-family="Times,serif" font-size="14.00" fill="#000000">Female8</text>
</g>
<!-- ConnectionChildren45&#45;&#45;NodeFemale8 -->
<g id="edge20" class="edge">
<title>ConnectionChildren45&#45;&#45;NodeFemale8</title>
<path fill="none" stroke="#000000" stroke-width="2" d="M572,-198.1121C572,-201.6204 572,-219.5184 572,-233.7386"/>
</g>
</g>
</svg>